<svg xmlns="http://www.w3.org/2000/svg" viewBox="0 0 2500 1250" id="mahindra"><path fill="red" d="M1205.88,5.59c-347.82.07-661,118.7-696.78,277.69C485.31,389,595.59,497.54,764.14,561c197.16-179.12,420.14-368.62,711-498.78C1210,232.87,1014.39,420.36,855,591.79c53.59,14,112.14,26.84,174.17,34C1118.76,487.49,1218.46,315.44,1512.94,65c-213.92,257.25-313.71,410-400.11,571.5,318.41,28.49,688.9-11.42,777.16-291,38.12-169.62-237.17-320.71-614.18-337.9q-34.93-1.83-69.93-2.06Zm-12.6,25.87c141.15-1.63,251.82,14,251.82,14-273.67,98-466.48,198.21-720.47,342.05C727.1,390,524.21,358,670.06,190.25,780.15,63.61,1011.82,33.57,1193.28,31.46Zm357.44,46.88S1736,101.79,1781.57,265.8c50.18,180.59-425.52,253-457.48,225.92,88-212.74,114-214.55,226.63-413.38Z"></path><path fill="#666" d="M302.59,898.92c-23.64,0-43.56,3.94-60.28,11.93s-33.37,21.93-49.8,40.85v-46H78.93c-30.33,0-48.7,21.6-60.25,53.6,25,3.23,57.37-7.94,60.25,38.3v218.71H201.24V1058.07c0-23.6,4.09-40.72,13.11-51s20.93-15.33,35-15.33a37.59,37.59,0,0,1,35.81,26.37c1.61,4.88,2.62,13.58,2.62,27.24v171H410v-160c0-22.42,4.3-38.36,13.12-48.5s20.53-15.31,34.92-15.31c12.22,0,22.38,5.44,30.6,16.16,5.59,6.83,8.73,16.61,8.73,30.64v177H619.7V1021.49c0-42.12-9.63-73-28.83-92.78s-46.13-29.77-80.36-29.77c-23.23,0-42.73,3.74-58.55,11.06s-33.2,21.42-52.4,41.7c-9.4-17.37-21.89-30.38-36.71-39.15S328,898.94,302.59,898.94Zm1030,3.42c-25.36-1.77-48.12,10.72-50.68,28.07s15.7,33.13,41.06,34.92,48.12-11.59,50.67-28.94-15.69-32.3-41-34Zm-351.2,2.55c-25.45,5.74-22.87,18.25-31.45,28.07,14,3.88,30.89-.22,31.45,34v249.35h89.11V1108.29c0-20.59,2.91-34.62,9.63-42.55s15.44-11.93,26.18-11.93c9.76,0,17.35,2.64,22.72,8.51s8.73,15.62,8.73,29.79v124.25h89.11v-143c0-29.66-7-52.07-20.95-66.39s-32.61-21.27-56.79-21.27c-16.31,0-30.88,2.4-42.82,7.66s-23.72,14.19-35.81,26.37V904.89Zm901.55,0c-21.13.45-23.57,13.35-30.58,23,16.16,0,25.2,10.66,30.58,26.39V1013a87.89,87.89,0,0,0-30.58-20.41,99.66,99.66,0,0,0-37.56-6.81c-28.38,0-51.48,9.92-69.88,29.77s-28,48.53-28,86c0,33.48,8.66,61.71,25.34,85.1s40.92,34.92,72.52,34.92c15.72,0,30-2.84,42.8-9.38,9.6-5,19.79-14.75,31.45-28.94v33.19h83.85V904.9ZM798.79,985.74a278.24,278.24,0,0,0-46.31,3.41c-14.26,2.41-25.92,5.82-34.07,10.2-11.35,6.09-20.14,13.84-26.19,22.14s-9.91,19.56-13.11,34l84.72,8.51c3.51-9.78,8.3-16.88,14-20.41,7.27-4.55,17.75-6.81,32.32-6.81,11.35,0,19.07,2.55,23.59,6.81s7,11.48,7,22.13A303.88,303.88,0,0,1,809.27,1076c-9.9,2.62-31.32,7.1-64.65,13.61-27.82,5.37-47.32,13.61-57.66,24.69s-14.84,25.38-14.84,42.53c0,18.31,6.61,33.48,21,46s35.24,18.72,62.9,18.72c20.82,0,39.31-3.14,55-9.36a113.94,113.94,0,0,0,34.94-23c1,6.54,1.62,11.42,2.62,14.48s3.65,6.94,7,12.76h83a105.37,105.37,0,0,1-8.72-23c-1.39-6.05-1.75-14.06-1.75-24.69v-99.56c0-10.66-2.62-22.34-7-34.05s-9.92-20.86-17.49-27.24c-10.76-9.22-24.89-15-41.05-17.86s-37.13-4.26-63.79-4.26Zm797.57,0c-18.19,0-33.62,2.91-46.29,9.36s-25.2,17.3-37.58,32.35v-36.6h-83c-17.35.45-20.15,13.2-24.47,21.26,12.31,1.41,22.86,5.89,24.47,25.52v178.73h89.08V1108.29c0-20.59,2.91-34.62,9.63-42.55s15.44-11.93,26.19-11.93c9.78,0,17.34,2.64,22.74,8.51s8.73,15.62,8.73,29.79v124.25H1675v-143c0-29.77-7.06-52.13-21-66.39s-33.06-21.27-57.66-21.27Zm571.35,0c-12.54,0-22.95,3.34-31.45,9.36s-17.35,16.32-25.34,32.35v-36.6h-83c-20.14,0-17.91,12.09-20.1,22.11,8.55,3.88,19.21,2.62,20.1,23.84v179.56H2117v-75.74c0-36.18,4.83-60.84,14-74,6.42-9.37,15.44-13.63,27.08-13.63,6.11,0,14.86,1.7,25.34,6l27.08-61.27c-15.58-7.94-29.7-11.91-42.79-11.91Zm173.83,0a278.16,278.16,0,0,0-46.29,3.41c-14.28,2.41-25.92,5.82-34.07,10.2-11.37,6.09-20.17,13.84-26.21,22.14s-9.92,19.56-13.12,34l84.75,8.51c3.49-9.78,8.28-16.88,14-20.41,7.3-4.55,17.78-6.81,32.33-6.81,11.37,0,19.09,2.55,23.59,6.81s7,11.48,7,22.13A301.57,301.57,0,0,1,2352,1076c-9.89,2.62-31.29,7.1-64.64,13.61-27.8,5.37-47.32,13.61-57.64,24.69s-14.86,25.38-14.86,42.53c0,18.31,6.62,33.48,21,46s35.23,18.72,62.9,18.72c20.82,0,39.31-3.14,55-9.36a114,114,0,0,0,35-23c1,6.54,1.59,11.42,2.62,14.48s3.63,6.94,7,12.76h83c-4.68-9.35-7.36-16.94-8.73-23s-1.77-14.06-1.77-24.69v-99.56c0-10.66-2.61-22.34-7-34.05s-9.89-20.86-17.46-27.24c-10.79-9.22-24.91-15-41.07-17.86s-37.14-4.26-63.77-4.26Zm-1057.92,5.11v225.51h89.11V990.85Zm559.1,59.56c11.79,0,21.11,4,28.83,12.76s12.22,22.27,12.22,40c0,19.58-3.78,33.91-11.35,42.55s-17.46,12.76-28.83,12.76a34,34,0,0,1-27.08-12.76c-7.21-8.57-10.48-22.38-10.48-40.85,0-19.7,3.49-33.33,10.48-41.68s15.89-12.76,26.21-12.76Zm-1002,58.74v14.46c0,10.78-1.68,19.65-5.24,26.39s-9.85,12.31-18.36,17a53.9,53.9,0,0,1-27.08,6.8c-9.45,0-16.95-2.46-21.82-6.8s-7-9.36-7-16.16a21.37,21.37,0,0,1,7-16.19c4.79-4.54,16-8.93,34.06-13.61,13.25-3.26,26.19-7.65,38.44-11.9Zm1542.74,0v14.46c0,10.78-1.65,19.65-5.24,26.39s-9.82,12.31-18.35,17a54,54,0,0,1-27.08,6.8c-9.45,0-16.95-2.46-21.83-6.8s-7-9.36-7-16.16a21.33,21.33,0,0,1,7-16.19c4.81-4.54,16-8.93,34.07-13.61,13.25-3.26,26.21-7.65,38.43-11.9Z"></path></svg>